<?xml version="1.0" encoding="UTF-8" standalone="no"?>
<svg width="637px" height="220px" viewBox="0 0 637 220" version="1.1" xmlns="http://www.w3.org/2000/svg" xmlns:xlink="http://www.w3.org/1999/xlink" xmlns:sketch="http://www.bohemiancoding.com/sketch/ns">
    <!-- Generator: Sketch 3.3.3 (12081) - http://www.bohemiancoding.com/sketch -->
    <title>Outlines - White</title>
    <desc>Created with Sketch.</desc>
    <defs>
        <radialGradient cx="50%" cy="49.473852%" fx="50%" fy="49.473852%" r="48.4267134%" id="radialGradient-1">
            <stop stop-color="#FFFFFF" offset="0%"></stop>
            <stop stop-color="#FFFFFF" stop-opacity="0" offset="100%"></stop>
        </radialGradient>
    </defs>
    <g id="Page-1" stroke="none" stroke-width="1" fill="none" fill-rule="evenodd" sketch:type="MSPage">
        <g id="Outlines---White" sketch:type="MSLayerGroup" transform="translate(-42.000000, -14.000000)">
            <path d="M119,115 C147.166522,115 170,92.1665222 170,64 C170,35.8334778 147.166522,13 119,13 C90.8334778,13 68,35.8334778 68,64 C68,92.1665222 90.8334778,115 119,115 Z" id="Oval-4" opacity="0.579116138" fill="url(#radialGradient-1)" sketch:type="MSShapeGroup"></path>
            <path d="M126.195172,66.3816112 C127.115247,67.8769468 127.645928,69.6375177 127.645928,71.5220358 C127.645928,76.9471091 123.248037,81.345 117.822964,81.345 C112.397891,81.345 108,76.9471091 108,71.5220358 C108,70.5532283 108.140252,69.6171784 108.401559,68.7330823 C109.161541,65.5419983 111.467964,57.0708252 115.467598,52.4618952 C121.382659,44.4227378 120.276846,41 120.276846,41 C120.276846,41 121.489315,43.4055534 121.489315,45.4111992 C121.489315,47.416845 121.381202,48.4821822 121.489315,49.7230854 C121.787786,53.1488547 121.785036,54.5486616 122.266029,56.6548181 C123.80485,63.39297 126.253421,66.3699718 126.253421,66.3699718 L126.195172,66.3816112 Z" id="Oval-1" fill="#FFFFFF" sketch:type="MSShapeGroup"></path>
            <path d="M445.24,148.12 L445.24,146.2 C437.2,146.08 435.64,142.12 435.64,135.4 L435.64,72.4 L441.28,72.4 C455.68,72.4 458.56,73.6 461.32,85.24 L463.72,85.24 C463.12,79.6 462.64,73.6 462.28,67.84 C443.92,68.08 438.52,68.08 431.8,68.08 C424.96,68.08 419.44,68.08 401.08,67.84 C400.72,73.6 400.24,79.6 399.76,85.24 L402.16,85.24 C404.8,73.6 406.36,72.4 421.24,72.4 L427.84,72.4 L427.84,135.4 C427.84,142.12 426.4,146.08 418.36,146.2 L418.36,148.12 C420.88,148 427,147.88 431.44,147.88 C436,147.88 441.4,148 445.24,148.12 L445.24,148.12 Z M491.44,148.12 L491.44,146.2 C483.52,145.96 481.96,142.24 481.96,136.48 L481.96,104.32 C484.12,100.12 489.28,97.6 492.4,97.6 C495.28,97.6 496.96,99.16 497.8,101.2 L498.4,101.44 C501.16,99.64 503.08,97.36 503.08,94.6 C503.08,91.48 500.8,89.44 496.6,89.44 C489.52,89.44 484,95.8 481.72,100.6 C481.48,91.6 478.24,89.92 475.36,89.92 C471.88,89.92 468.64,91.72 465.28,94.6 L465.28,95.68 C472.96,95.68 474.88,100 474.88,111.28 L474.88,135.4 C474.88,142.48 473.44,145.84 467.2,146.2 L467.2,148.12 C470.44,147.88 474.28,147.76 479.08,147.76 C483.64,147.76 486.76,147.88 491.44,148.12 L491.44,148.12 Z M554.2,140.2 C554.92,146.08 558.04,148.96 562.84,148.96 C565,148.96 568.6,148.12 570.76,145.84 L570.76,144.76 C563.08,144.76 560.68,141.4 560.68,133 L560.68,106.96 C560.68,100.36 560.68,97.48 560.56,95.32 C560.44,92.68 559.48,89.92 555.52,89.92 C551.2,89.92 546.28,92.8 544.24,94.72 L544.24,95.68 C550.12,95.68 552.64,97.48 553.12,101.8 C553.36,103.72 553.48,106.12 553.48,109.12 L553.48,136.6 C548.44,142.12 541.72,143.32 535.96,143.32 C531.28,143.32 527.44,141.4 525.64,138.28 C524.68,136.12 523.96,132.52 523.96,127.6 L523.96,103.36 C523.96,100.36 523.96,97.48 523.84,95.2 C523.72,91.96 522.4,89.92 518.92,89.92 C514.48,89.92 509.92,92.68 508,94.72 L508,95.68 C513.64,95.68 515.92,97.48 516.52,102.04 C516.76,103.72 516.76,106.96 516.76,109.96 L516.76,129.88 C516.76,135.04 517.48,139.72 518.92,142.24 C521.44,147.04 527.56,149.56 534.04,149.56 C544,149.56 550,145.6 554.2,140.2 L554.2,140.2 Z M611.32,142.48 L610.48,141.64 C607.96,142.6 604.84,143.44 602.2,143.44 C598,143.44 595.24,142.24 594.28,137.68 C593.92,135.88 593.68,133.48 593.68,130.6 L593.68,95.68 L608.68,95.68 L608.68,90.88 L593.68,90.88 L593.68,77.08 L590.92,77.08 C587.44,90.28 584.56,91.48 577.36,93.16 L577.36,95.68 L586.48,95.68 L586.48,132.76 C586.48,135.4 586.6,137.8 586.84,139.72 C588.16,146.68 592,149.2 598.72,149.2 C603.4,149.2 608.08,146.56 611.32,142.48 L611.32,142.48 Z M640.96,148.12 L640.96,146.2 C633.52,145.96 631.48,142.84 631.48,136.12 L631.48,102.76 C636.04,98.2 642.16,95.68 649.6,95.68 C653.8,95.68 657.88,97.36 659.32,101.08 C660.04,103.24 660.52,106.84 660.52,111.16 L660.52,130.48 C660.52,136.6 660.64,140.56 661.36,142.84 C662.32,145.72 664.24,148.96 670.12,148.96 C672.76,148.96 675.76,147.64 677.92,145.84 L677.92,144.76 C672.52,144.76 669.52,142.6 668.56,139.72 C667.96,137.68 667.72,134.32 667.72,130.6 L667.72,108.28 C667.72,103 667,99.04 665.92,96.64 C663.52,91.72 658.84,89.44 652.6,89.44 C642.04,89.44 634.96,94.84 631.48,99.52 L631.48,70 C631.48,60.16 630.76,58.12 626.56,58.12 C622.96,58.12 618.4,60.76 615.52,63.16 L615.52,64.24 C623.2,64.48 624.28,67.12 624.28,75.52 L624.28,135.64 C624.28,143.2 622.12,145.84 615.88,146.2 L615.88,148.12 C620.32,147.76 623.2,147.76 627.88,147.76 C632.44,147.76 636.4,147.88 640.96,148.12 L640.96,148.12 Z" id="Truth-Copy" stroke="#FFFFFF" fill="#FFFFFF" sketch:type="MSShapeGroup"></path>
            <path d="M370.68,140.32 C379.44,148 381.96,149.08 386.88,149.08 C390.84,149.08 395.16,146.32 396.84,142.24 L396.36,141.52 C394.8,142.24 393.12,142.48 391.8,142.48 C385.56,142.48 381,139.84 375.84,134.56 C381,128.08 384.84,120.4 384.84,112.84 C384.84,107.2 382.32,102.88 378,102.88 C375.84,102.88 373.44,104.2 371.52,106.6 L371.52,107.44 C376.08,110.08 378,112.96 378,117.64 C378,122.68 376.56,126.52 373.08,131.8 C365.76,125.56 354.36,111.52 348.48,103.36 C359.16,98.44 368.76,91.24 368.76,81.64 C368.76,71.68 361.68,66.28 351.36,66.28 C340.32,66.28 331.32,73.24 331.32,84.88 C331.32,90.28 333.12,95.8 338.88,103.6 C327.84,109.36 320.76,115.24 320.76,127.12 C320.76,136.6 328.56,149.44 347.04,149.44 C356.88,149.44 364.56,146.2 370.68,140.32 L370.68,140.32 Z M367.8,137.44 C362.76,142 355.8,143.56 349.56,143.56 C337.44,143.56 328.8,135.28 328.8,124.96 C328.8,116.2 333.72,110.32 341.04,106.48 C347.16,115 358.68,129.28 367.8,137.44 L367.8,137.44 Z M346.08,100.6 C341.4,94.84 338.88,88.6 338.88,82.12 C338.88,74.68 344.76,70.72 350.76,70.72 C357.6,70.72 361.8,74.32 361.8,81.76 C361.8,90.16 354.6,96.04 346.08,100.6 L346.08,100.6 Z" id="&amp;" stroke="#FFFFFF" fill="#FFFFFF" sketch:type="MSShapeGroup"></path>
            <path d="M100.52,148 C100.52,141.64 100.64,134.92 100.88,128.56 L98.36,128.56 C97.16,139.48 94.4,142.96 84.68,142.96 C79.04,142.96 71.6,142.96 64.04,142.36 L64.04,78.04 C64.04,71.44 65.84,69.88 73.88,69.64 L73.88,67.72 C69.44,67.96 64.52,67.96 60.08,67.96 C55.64,67.96 51.08,67.96 46.64,67.72 L46.64,69.64 C54.56,69.88 56.24,71.44 56.24,78.04 L56.24,135.4 C56.24,142.12 54.56,146.08 46.64,146.2 L46.64,148.12 C54.08,147.88 58.4,147.88 62.72,147.88 C69.2,147.88 87.8,147.88 100.52,148 L100.52,148 Z M133.88,148.12 L133.88,146.2 C126.32,145.96 124.16,143.2 124.16,136.48 L124.16,101.08 C124.16,99.28 124.04,97.12 123.92,95.8 C122.84,90.64 119.84,89.92 117.68,89.92 C114.08,89.92 110.48,91.96 107.36,94.72 L107.36,95.68 C114.92,95.68 117.08,99.64 117.08,111.16 L117.08,135.64 C117.08,143.32 114.92,145.84 108.56,146.2 L108.56,148.12 C113.12,147.76 116,147.76 120.56,147.76 C125.24,147.76 129.2,147.88 133.88,148.12 L133.88,148.12 Z M124.76,71.68 C124.76,68.2 122.24,65.44 118.88,65.44 C115.4,65.44 112.76,68.2 112.76,71.68 C112.76,75.16 115.4,77.68 118.88,77.68 C122.24,77.68 124.76,75.16 124.76,71.68 L124.76,71.68 Z M188.72,87.04 C188.12,90.52 182.84,91.84 177.44,91.84 C173.96,90.52 168.2,89.56 164.84,89.56 C151.04,89.56 143.36,97.96 143.36,109.12 C143.36,117.4 147.56,122.92 156.44,126.64 C149.48,129.64 146.12,133.24 146.12,137.32 C146.12,140.08 147.44,142.24 149.96,143.68 C152.96,145.36 157.76,145.72 163.52,146.08 C181.88,147.16 184.88,149.08 184.88,156.4 C184.88,162.88 178.76,169.36 165.2,169.36 C153.08,169.36 147.32,164.2 147.32,157.12 C147.32,153.16 149.48,150.28 151.04,148.6 L150.44,148 C145.04,149.44 139.88,153.28 139.88,159.28 C139.88,166.48 147.56,173.92 164.84,173.92 C180.2,173.92 192.2,165.64 192.2,154.36 C192.2,141.64 182.96,140.2 170.12,139.72 C163.04,139.48 157.88,139 156.2,138.28 C155,137.68 153.92,136.72 153.92,134.68 C153.92,132.4 157.52,128.92 161.24,127.6 C163.16,127.6 165.44,127.48 167.36,127.24 C181.04,125.44 185.48,116.68 185.48,109 C185.48,103.6 183.68,98.92 179.48,96.28 C181.04,96.64 183.44,96.88 185.72,96.88 C188.6,96.88 191.96,95.68 191.96,91.72 C191.96,90.28 191.24,88.6 189.68,87.04 L188.72,87.04 Z M177.8,109 C177.8,119.2 171.8,123.4 164.48,123.4 C157.28,123.4 151.16,118.96 151.16,108.64 C151.16,97.96 157.28,93.88 164.48,93.88 C172.28,93.88 177.8,98.32 177.8,109 L177.8,109 Z M224.72,148.12 L224.72,146.2 C217.28,145.96 215.24,142.84 215.24,136.12 L215.24,102.76 C219.8,98.2 225.92,95.68 233.36,95.68 C237.56,95.68 241.64,97.36 243.08,101.08 C243.8,103.24 244.28,106.84 244.28,111.16 L244.28,130.48 C244.28,136.6 244.4,140.56 245.12,142.84 C246.08,145.72 248,148.96 253.88,148.96 C256.52,148.96 259.52,147.64 261.68,145.84 L261.68,144.76 C256.28,144.76 253.28,142.6 252.32,139.72 C251.72,137.68 251.48,134.32 251.48,130.6 L251.48,108.28 C251.48,103 250.76,99.04 249.68,96.64 C247.28,91.72 242.6,89.44 236.36,89.44 C225.8,89.44 218.72,94.84 215.24,99.52 L215.24,70 C215.24,60.16 214.52,58.12 210.32,58.12 C206.72,58.12 202.16,60.76 199.28,63.16 L199.28,64.24 C206.96,64.48 208.04,67.12 208.04,75.52 L208.04,135.64 C208.04,143.2 205.88,145.84 199.64,146.2 L199.64,148.12 C204.08,147.76 206.96,147.76 211.64,147.76 C216.2,147.76 220.16,147.88 224.72,148.12 L224.72,148.12 Z M301.76,142.48 L300.92,141.64 C298.4,142.6 295.28,143.44 292.64,143.44 C288.44,143.44 285.68,142.24 284.72,137.68 C284.36,135.88 284.12,133.48 284.12,130.6 L284.12,95.68 L299.12,95.68 L299.12,90.88 L284.12,90.88 L284.12,77.08 L281.36,77.08 C277.88,90.28 275,91.48 267.8,93.16 L267.8,95.68 L276.92,95.68 L276.92,132.76 C276.92,135.4 277.04,137.8 277.28,139.72 C278.6,146.68 282.44,149.2 289.16,149.2 C293.84,149.2 298.52,146.56 301.76,142.48 L301.76,142.48 Z" id="Light" stroke="#FFFFFF" fill="#FFFFFF" sketch:type="MSShapeGroup"></path>
            <path d="M59.0982233,232.073 L59.0982233,230.905 C54.2072233,230.832 53.2582233,228.423 53.2582233,224.335 C53.2582233,222.437 53.7692233,213.677 55.4482233,191.996 C60.3392233,203.384 66.7632233,220.758 69.9022233,231.051 L72.6032233,231.051 C74.8662233,223.897 76.4722233,220.028 87.7872233,189.222 C88.1522233,193.456 89.6122233,220.977 89.6122233,224.335 C89.6122233,228.569 88.6632233,230.832 83.7722233,230.905 L83.7722233,232.073 C86.5462233,232 89.3932233,231.927 92.0212233,231.927 C94.7222233,231.927 98.1532233,232 100.489223,232.073 L100.489223,230.905 C95.5982233,230.832 94.9412233,228.423 94.6492233,224.335 C92.7512233,193.383 92.6782233,190.828 92.6782233,189.952 C92.6782233,186.083 93.5542233,184.477 97.8612233,184.331 L97.8612233,183.163 C95.1602233,183.309 93.6272233,183.382 92.3132233,183.382 C90.3422233,183.382 87.5682233,183.309 86.4002233,183.236 C74.5012233,215.502 73.4792233,218.641 72.1652233,222.364 C67.0552233,207.18 60.7772233,190.901 57.8572233,185.791 C56.9082233,184.112 55.8132233,182.725 52.9662233,182.725 C50.9952233,182.725 48.6592233,183.528 47.0532233,184.623 L47.1992233,185.134 C49.6812233,185.28 51.3602233,185.937 52.4552233,188.346 C52.4552233,189.368 52.1632233,194.259 49.4622233,224.335 C49.0972233,228.204 48.1482233,230.832 43.2572233,230.905 L43.2572233,232.073 C45.9582233,232 47.8562233,231.927 50.5572233,231.927 C53.2582233,231.927 56.8352233,232 59.0982233,232.073 L59.0982233,232.073 Z M169.441779,207.91 C169.441779,194.332 164.550779,182.287 149.220779,182.287 C136.737779,182.287 129.291779,192.069 129.291779,207.399 C129.291779,222.072 135.204779,232.949 149.585779,232.949 C162.798779,232.949 169.441779,222.875 169.441779,207.91 L169.441779,207.91 Z M164.185779,208.567 C164.185779,223.532 157.980779,230.175 149.585779,230.175 C139.000779,230.175 134.547779,220.393 134.547779,206.669 C134.547779,192.872 139.584779,185.061 149.220779,185.061 C159.440779,185.061 164.185779,193.967 164.185779,208.567 L164.185779,208.567 Z M214.961334,232.073 L214.961334,230.905 C210.070334,230.832 209.048334,228.423 209.048334,224.335 C209.048334,207.837 209.048334,195.938 208.902334,190.682 C216.129334,200.172 228.904334,219.517 236.861334,232.219 L239.489334,232.219 L239.489334,190.828 C239.489334,186.813 240.438334,184.404 245.329334,184.258 L245.329334,183.163 C242.993334,183.236 240.584334,183.309 237.883334,183.309 C235.182334,183.309 232.700334,183.309 230.072334,183.163 L230.072334,184.258 C234.963334,184.404 235.912334,186.813 235.912334,190.828 C235.912334,210.173 236.204334,220.393 236.350334,222.51 C222.553334,200.756 215.618334,190.536 211.092334,185.572 C209.559334,183.893 208.099334,182.579 205.471334,182.579 C203.573334,182.579 201.091334,183.528 199.704334,184.696 L199.850334,185.134 C202.040334,185.28 204.157334,186.01 205.617334,187.908 L205.617334,224.335 C205.617334,228.423 204.522334,230.832 199.631334,230.905 L199.631334,232.073 C202.405334,232.073 204.814334,231.927 207.515334,231.927 C210.216334,231.927 212.625334,232 214.961334,232.073 L214.961334,232.073 Z M299.754889,232.073 L299.754889,230.905 C294.863889,230.832 293.914889,228.423 293.914889,224.335 L293.914889,186.01 L297.345889,186.01 C306.105889,186.01 307.857889,186.74 309.536889,193.821 L310.996889,193.821 C310.631889,190.39 310.339889,186.74 310.120889,183.236 C298.951889,183.382 295.666889,183.382 291.578889,183.382 C287.417889,183.382 284.059889,183.382 272.890889,183.236 C272.671889,186.74 272.379889,190.39 272.087889,193.821 L273.547889,193.821 C275.153889,186.74 276.102889,186.01 285.154889,186.01 L289.169889,186.01 L289.169889,224.335 C289.169889,228.423 288.293889,230.832 283.402889,230.905 L283.402889,232.073 C284.935889,232 288.658889,231.927 291.359889,231.927 C294.133889,231.927 297.418889,232 299.754889,232.073 L299.754889,232.073 Z M370.824445,232 C370.824445,228.131 370.897445,224.189 370.970445,220.32 L369.510445,220.32 C368.707445,226.963 366.809445,229.08 360.896445,229.08 C357.611445,229.08 353.085445,229.007 348.413445,228.496 L348.413445,207.91 L352.282445,207.91 C360.750445,207.91 361.991445,209.443 362.283445,213.239 L363.743445,213.239 C363.597445,211.049 363.597445,208.859 363.597445,206.596 C363.597445,204.406 363.597445,202.143 363.743445,199.88 L362.283445,199.88 C361.991445,203.895 360.531445,205.136 352.209445,205.136 L348.413445,205.136 L348.413445,186.302 L355.202445,186.302 C364.473445,186.302 366.590445,186.74 368.269445,193.821 L369.510445,193.821 C369.218445,190.39 368.926445,186.74 368.707445,183.236 C357.538445,183.455 353.085445,183.455 348.924445,183.455 C345.055445,183.455 342.354445,183.382 337.828445,183.163 L337.828445,184.331 C342.646445,184.477 343.668445,185.426 343.668445,189.441 L343.668445,224.335 C343.668445,228.423 342.646445,230.832 337.828445,230.905 L337.828445,232.073 C342.354445,231.927 344.982445,231.927 347.610445,231.927 C351.552445,231.927 363.086445,231.927 370.824445,232 L370.824445,232 Z M402.839,219.371 C399.554,220.174 398.897,221.853 398.897,223.386 C398.897,228.35 405.175,232.949 414.446,232.949 C423.425,232.949 431.163,228.131 431.163,219.298 C431.163,214.115 428.535,210.538 419.775,206.304 L414.008,203.53 C408.387,200.829 405.613,198.201 405.613,193.748 C405.613,188.127 410.942,185.061 416.417,185.061 C421.235,185.061 425.834,187.032 425.907,193.456 L426.418,193.748 C429.192,192.726 429.995,191.339 429.995,190.171 C429.995,186.813 426.345,182.287 416.636,182.287 C409.044,182.287 401.233,186.156 401.233,194.624 C401.233,200.464 404.445,204.552 410.942,207.618 L416.928,210.538 C422.33,213.093 426.637,215.648 426.637,220.393 C426.637,227.255 421.016,229.956 415.103,229.956 C409.701,229.956 403.277,227.474 403.277,219.736 L402.839,219.371 Z M462.520555,219.371 C459.235555,220.174 458.578555,221.853 458.578555,223.386 C458.578555,228.35 464.856555,232.949 474.127555,232.949 C483.106555,232.949 490.844555,228.131 490.844555,219.298 C490.844555,214.115 488.216555,210.538 479.456555,206.304 L473.689555,203.53 C468.068555,200.829 465.294555,198.201 465.294555,193.748 C465.294555,188.127 470.623555,185.061 476.098555,185.061 C480.916555,185.061 485.515555,187.032 485.588555,193.456 L486.099555,193.748 C488.873555,192.726 489.676555,191.339 489.676555,190.171 C489.676555,186.813 486.026555,182.287 476.317555,182.287 C468.725555,182.287 460.914555,186.156 460.914555,194.624 C460.914555,200.464 464.126555,204.552 470.623555,207.618 L476.609555,210.538 C482.011555,213.093 486.318555,215.648 486.318555,220.393 C486.318555,227.255 480.697555,229.956 474.784555,229.956 C469.382555,229.956 462.958555,227.474 462.958555,219.736 L462.520555,219.371 Z M560.089111,207.91 C560.089111,194.332 555.198111,182.287 539.868111,182.287 C527.385111,182.287 519.939111,192.069 519.939111,207.399 C519.939111,222.072 525.852111,232.949 540.233111,232.949 C553.446111,232.949 560.089111,222.875 560.089111,207.91 L560.089111,207.91 Z M554.833111,208.567 C554.833111,223.532 548.628111,230.175 540.233111,230.175 C529.648111,230.175 525.195111,220.393 525.195111,206.669 C525.195111,192.872 530.232111,185.061 539.868111,185.061 C550.088111,185.061 554.833111,193.967 554.833111,208.567 L554.833111,208.567 Z M607.068666,232.073 L607.068666,230.905 C601.301666,230.832 600.498666,228.423 600.498666,223.824 L600.498666,209.589 C602.177666,209.662 603.345666,209.662 604.659666,209.662 C607.214666,209.662 609.112666,210.1 610.718666,211.487 C612.689666,213.239 615.974666,220.539 618.894666,225.649 C621.960666,230.832 623.858666,232.511 627.143666,232.511 C629.041666,232.511 630.793666,231.708 632.472666,229.81 L632.253666,229.445 C630.136666,229.445 628.384666,228.934 627.289666,228.058 C626.121666,227.109 624.661666,225.357 622.763666,222.218 C620.865666,219.079 619.186666,216.013 617.434666,212.947 C616.120666,210.611 614.514666,208.713 612.470666,208.494 C621.522666,206.085 624.369666,200.829 624.369666,195.354 C624.369666,187.543 619.259666,183.236 607.579666,183.236 C604.878666,183.236 600.717666,183.382 598.016666,183.382 C595.315666,183.382 592.468666,183.382 589.913666,183.236 L589.913666,184.258 C594.731666,184.404 595.753666,185.864 595.753666,189.879 L595.753666,224.335 C595.753666,228.423 594.731666,230.832 589.913666,230.905 L589.913666,232.073 C592.614666,232 595.388666,231.927 598.089666,231.927 C600.790666,231.927 604.805666,232 607.068666,232.073 L607.068666,232.073 Z M600.498666,206.669 L600.498666,186.083 L606.630666,186.083 C614.514666,186.083 619.259666,188.93 619.259666,196.011 C619.259666,201.559 616.339666,206.815 604.805666,206.815 C603.418666,206.815 601.958666,206.815 600.498666,206.669 L600.498666,206.669 Z M674.050221,232.073 L674.050221,230.905 C669.159221,230.832 668.210221,228.423 668.210221,224.335 L668.210221,189.441 C668.210221,185.426 669.159221,184.477 674.050221,184.331 L674.050221,183.163 C671.349221,183.309 668.575221,183.309 665.874221,183.309 C663.173221,183.309 660.326221,183.309 657.625221,183.163 L657.625221,184.331 C662.443221,184.477 663.465221,185.426 663.465221,189.441 L663.465221,224.335 C663.465221,228.423 662.443221,230.832 657.625221,230.905 L657.625221,232.073 C660.326221,232 663.173221,231.927 665.874221,231.927 C668.575221,231.927 671.714221,232 674.050221,232.073 L674.050221,232.073 Z" id="MONTESSORI" stroke="#FFFFFF" fill="#FFFFFF" sketch:type="MSShapeGroup"></path>
        </g>
    </g>
</svg>