<?xml version="1.0" encoding="UTF-8" standalone="no"?>
<svg width="636px" height="192px" viewBox="0 0 636 192" version="1.1" xmlns="http://www.w3.org/2000/svg" xmlns:xlink="http://www.w3.org/1999/xlink" xmlns:sketch="http://www.bohemiancoding.com/sketch/ns">
    <!-- Generator: Sketch 3.3.3 (12081) - http://www.bohemiancoding.com/sketch -->
    <title>Font Based</title>
    <desc>Created with Sketch.</desc>
    <defs>
        <filter x="-50%" y="-50%" width="200%" height="200%" filterUnits="objectBoundingBox" id="filter-1">
            <feOffset dx="0" dy="1" in="SourceAlpha" result="shadowOffsetInner1"></feOffset>
            <feGaussianBlur stdDeviation="1.5" in="shadowOffsetInner1" result="shadowBlurInner1"></feGaussianBlur>
            <feComposite in="shadowBlurInner1" in2="SourceAlpha" operator="arithmetic" k2="-1" k3="1" result="shadowInnerInner1"></feComposite>
            <feColorMatrix values="0 0 0 0 0   0 0 0 0 0   0 0 0 0 0  0 0 0 0.35 0" in="shadowInnerInner1" type="matrix" result="shadowMatrixInner1"></feColorMatrix>
            <feMerge>
                <feMergeNode in="SourceGraphic"></feMergeNode>
                <feMergeNode in="shadowMatrixInner1"></feMergeNode>
            </feMerge>
        </filter>
    </defs>
    <g id="Page-1" stroke="none" stroke-width="1" fill="none" fill-rule="evenodd" sketch:type="MSPage">
        <g id="Font-Based" sketch:type="MSLayerGroup" transform="translate(-2.000000, -9.000000)">
            <text id="&amp;-copy" fill="#000000" sketch:type="MSTextLayer" font-family="Corda" font-size="120" font-weight="260">
                <tspan x="276" y="120">&amp;</tspan>
            </text>
            <text id="Light" sketch:type="MSTextLayer" font-family="Corda" font-size="120" font-weight="260" fill="#000000">
                <tspan x="0" y="120">Light</tspan>
            </text>
            <text id="Truth-Copy" sketch:type="MSTextLayer" font-family="Corda" font-size="120" font-weight="260" fill="#000000">
                <tspan x="356" y="120">Truth</tspan>
            </text>
            <text id="MONTESSORI" fill="white" filter="url(#filter-1)" sketch:type="MSTextLayer" font-family="Corda" font-size="73" font-weight="260" sketch:alignment="middle" letter-spacing="22.3055553">
                <tspan x="0.213223282" y="200" fill="#000000">MONTESSORI</tspan>
            </text>
            <path d="M85.1951722,34.3816112 C86.115247,35.8769468 86.6459284,37.6375177 86.6459284,39.5220358 C86.6459284,44.9471091 82.2480375,49.345 76.8229642,49.345 C71.3978909,49.345 67,44.9471091 67,39.5220358 C67,38.5532283 67.1402517,37.6171784 67.4015589,36.7330823 C68.1615407,33.5419983 70.467964,25.0708252 74.4675984,20.4618952 C80.3826591,12.4227378 79.2768464,9 79.2768464,9 C79.2768464,9 80.4893155,11.4055534 80.4893155,13.4111992 C80.4893155,15.416845 80.3812017,16.4821822 80.4893155,17.7230854 C80.7877857,21.1488547 80.7850364,22.5486616 81.2660285,24.6548181 C82.8048498,31.39297 85.2534212,34.3699718 85.2534212,34.3699718 L85.1951722,34.3816112 Z" id="Oval-1" fill="#000000" sketch:type="MSShapeGroup"></path>
        </g>
    </g>
</svg>