<?xml version="1.0" encoding="UTF-8" standalone="no"?>
<svg width="635px" height="192px" viewBox="0 0 635 192" version="1.1" xmlns="http://www.w3.org/2000/svg" xmlns:xlink="http://www.w3.org/1999/xlink" xmlns:sketch="http://www.bohemiancoding.com/sketch/ns">
    <!-- Generator: Sketch 3.3.3 (12081) - http://www.bohemiancoding.com/sketch -->
    <title>Outlines - White</title>
    <desc>Created with Sketch.</desc>
    <defs></defs>
    <g id="Page-1" stroke="none" stroke-width="1" fill="none" fill-rule="evenodd" sketch:type="MSPage">
        <g id="Outlines---White" sketch:type="MSLayerGroup" fill="#FFFFFF">
            <path d="M83.1951722,25.3816112 C84.115247,26.8769468 84.6459284,28.6375177 84.6459284,30.5220358 C84.6459284,35.9471091 80.2480375,40.345 74.8229642,40.345 C69.3978909,40.345 65,35.9471091 65,30.5220358 C65,29.5532283 65.1402517,28.6171784 65.4015589,27.7330823 C66.1615407,24.5419983 68.467964,16.0708252 72.4675984,11.4618952 C78.3826591,3.4227378 77.2768464,3.01887363e-17 77.2768464,3.01887363e-17 C77.2768464,3.01887363e-17 78.4893155,2.40555343 78.4893155,4.4111992 C78.4893155,6.41684498 78.3812017,7.48218217 78.4893155,8.72308535 C78.7877857,12.1488547 78.7850364,13.5486616 79.2660285,15.6548181 C80.8048498,22.39297 83.2534212,25.3699718 83.2534212,25.3699718 L83.1951722,25.3816112 Z" id="Oval-1" sketch:type="MSShapeGroup"></path>
            <path d="M402.24,107.12 L402.24,105.2 C394.2,105.08 392.64,101.12 392.64,94.4 L392.64,31.4 L398.28,31.4 C412.68,31.4 415.56,32.6 418.32,44.24 L420.72,44.24 C420.12,38.6 419.64,32.6 419.28,26.84 C400.92,27.08 395.52,27.08 388.8,27.08 C381.96,27.08 376.44,27.08 358.08,26.84 C357.72,32.6 357.24,38.6 356.76,44.24 L359.16,44.24 C361.8,32.6 363.36,31.4 378.24,31.4 L384.84,31.4 L384.84,94.4 C384.84,101.12 383.4,105.08 375.36,105.2 L375.36,107.12 C377.88,107 384,106.88 388.44,106.88 C393,106.88 398.4,107 402.24,107.12 L402.24,107.12 Z M448.44,107.12 L448.44,105.2 C440.52,104.96 438.96,101.24 438.96,95.48 L438.96,63.32 C441.12,59.12 446.28,56.6 449.4,56.6 C452.28,56.6 453.96,58.16 454.8,60.2 L455.4,60.44 C458.16,58.64 460.08,56.36 460.08,53.6 C460.08,50.48 457.8,48.44 453.6,48.44 C446.52,48.44 441,54.8 438.72,59.6 C438.48,50.6 435.24,48.92 432.36,48.92 C428.88,48.92 425.64,50.72 422.28,53.6 L422.28,54.68 C429.96,54.68 431.88,59 431.88,70.28 L431.88,94.4 C431.88,101.48 430.44,104.84 424.2,105.2 L424.2,107.12 C427.44,106.88 431.28,106.76 436.08,106.76 C440.64,106.76 443.76,106.88 448.44,107.12 L448.44,107.12 Z M511.2,99.2 C511.92,105.08 515.04,107.96 519.84,107.96 C522,107.96 525.6,107.12 527.76,104.84 L527.76,103.76 C520.08,103.76 517.68,100.4 517.68,92 L517.68,65.96 C517.68,59.36 517.68,56.48 517.56,54.32 C517.44,51.68 516.48,48.92 512.52,48.92 C508.2,48.92 503.28,51.8 501.24,53.72 L501.24,54.68 C507.12,54.68 509.64,56.48 510.12,60.8 C510.36,62.72 510.48,65.12 510.48,68.12 L510.48,95.6 C505.44,101.12 498.72,102.32 492.96,102.32 C488.28,102.32 484.44,100.4 482.64,97.28 C481.68,95.12 480.96,91.52 480.96,86.6 L480.96,62.36 C480.96,59.36 480.96,56.48 480.84,54.2 C480.72,50.96 479.4,48.92 475.92,48.92 C471.48,48.92 466.92,51.68 465,53.72 L465,54.68 C470.64,54.68 472.92,56.48 473.52,61.04 C473.76,62.72 473.76,65.96 473.76,68.96 L473.76,88.88 C473.76,94.04 474.48,98.72 475.92,101.24 C478.44,106.04 484.56,108.56 491.04,108.56 C501,108.56 507,104.6 511.2,99.2 L511.2,99.2 Z M568.32,101.48 L567.48,100.64 C564.96,101.6 561.84,102.44 559.2,102.44 C555,102.44 552.24,101.24 551.28,96.68 C550.92,94.88 550.68,92.48 550.68,89.6 L550.68,54.68 L565.68,54.68 L565.68,49.88 L550.68,49.88 L550.68,36.08 L547.92,36.08 C544.44,49.28 541.56,50.48 534.36,52.16 L534.36,54.68 L543.48,54.68 L543.48,91.76 C543.48,94.4 543.6,96.8 543.84,98.72 C545.16,105.68 549,108.2 555.72,108.2 C560.4,108.2 565.08,105.56 568.32,101.48 L568.32,101.48 Z M597.96,107.12 L597.96,105.2 C590.52,104.96 588.48,101.84 588.48,95.12 L588.48,61.76 C593.04,57.2 599.16,54.68 606.6,54.68 C610.8,54.68 614.88,56.36 616.32,60.08 C617.04,62.24 617.52,65.84 617.52,70.16 L617.52,89.48 C617.52,95.6 617.64,99.56 618.36,101.84 C619.32,104.72 621.24,107.96 627.12,107.96 C629.76,107.96 632.76,106.64 634.92,104.84 L634.92,103.76 C629.52,103.76 626.52,101.6 625.56,98.72 C624.96,96.68 624.72,93.32 624.72,89.6 L624.72,67.28 C624.72,62 624,58.04 622.92,55.64 C620.52,50.72 615.84,48.44 609.6,48.44 C599.04,48.44 591.96,53.84 588.48,58.52 L588.48,29 C588.48,19.16 587.76,17.12 583.56,17.12 C579.96,17.12 575.4,19.76 572.52,22.16 L572.52,23.24 C580.2,23.48 581.28,26.12 581.28,34.52 L581.28,94.64 C581.28,102.2 579.12,104.84 572.88,105.2 L572.88,107.12 C577.32,106.76 580.2,106.76 584.88,106.76 C589.44,106.76 593.4,106.88 597.96,107.12 L597.96,107.12 Z" id="Truth-Copy" sketch:type="MSShapeGroup"></path>
            <path d="M329.68,99.32 C338.44,107 340.96,108.08 345.88,108.08 C349.84,108.08 354.16,105.32 355.84,101.24 L355.36,100.52 C353.8,101.24 352.12,101.48 350.8,101.48 C344.56,101.48 340,98.84 334.84,93.56 C340,87.08 343.84,79.4 343.84,71.84 C343.84,66.2 341.32,61.88 337,61.88 C334.84,61.88 332.44,63.2 330.52,65.6 L330.52,66.44 C335.08,69.08 337,71.96 337,76.64 C337,81.68 335.56,85.52 332.08,90.8 C324.76,84.56 313.36,70.52 307.48,62.36 C318.16,57.44 327.76,50.24 327.76,40.64 C327.76,30.68 320.68,25.28 310.36,25.28 C299.32,25.28 290.32,32.24 290.32,43.88 C290.32,49.28 292.12,54.8 297.88,62.6 C286.84,68.36 279.76,74.24 279.76,86.12 C279.76,95.6 287.56,108.44 306.04,108.44 C315.88,108.44 323.56,105.2 329.68,99.32 L329.68,99.32 Z M326.8,96.44 C321.76,101 314.8,102.56 308.56,102.56 C296.44,102.56 287.8,94.28 287.8,83.96 C287.8,75.2 292.72,69.32 300.04,65.48 C306.16,74 317.68,88.28 326.8,96.44 L326.8,96.44 Z M305.08,59.6 C300.4,53.84 297.88,47.6 297.88,41.12 C297.88,33.68 303.76,29.72 309.76,29.72 C316.6,29.72 320.8,33.32 320.8,40.76 C320.8,49.16 313.6,55.04 305.08,59.6 L305.08,59.6 Z" id="&amp;" sketch:type="MSShapeGroup"></path>
            <path d="M57.52,107 C57.52,100.64 57.64,93.92 57.88,87.56 L55.36,87.56 C54.16,98.48 51.4,101.96 41.68,101.96 C36.04,101.96 28.6,101.96 21.04,101.36 L21.04,37.04 C21.04,30.44 22.84,28.88 30.88,28.64 L30.88,26.72 C26.44,26.96 21.52,26.96 17.08,26.96 C12.64,26.96 8.08,26.96 3.64,26.72 L3.64,28.64 C11.56,28.88 13.24,30.44 13.24,37.04 L13.24,94.4 C13.24,101.12 11.56,105.08 3.64,105.2 L3.64,107.12 C11.08,106.88 15.4,106.88 19.72,106.88 C26.2,106.88 44.8,106.88 57.52,107 L57.52,107 Z M90.88,107.12 L90.88,105.2 C83.32,104.96 81.16,102.2 81.16,95.48 L81.16,60.08 C81.16,58.28 81.04,56.12 80.92,54.8 C79.84,49.64 76.84,48.92 74.68,48.92 C71.08,48.92 67.48,50.96 64.36,53.72 L64.36,54.68 C71.92,54.68 74.08,58.64 74.08,70.16 L74.08,94.64 C74.08,102.32 71.92,104.84 65.56,105.2 L65.56,107.12 C70.12,106.76 73,106.76 77.56,106.76 C82.24,106.76 86.2,106.88 90.88,107.12 L90.88,107.12 Z M81.76,30.68 C81.76,27.2 79.24,24.44 75.88,24.44 C72.4,24.44 69.76,27.2 69.76,30.68 C69.76,34.16 72.4,36.68 75.88,36.68 C79.24,36.68 81.76,34.16 81.76,30.68 L81.76,30.68 Z M145.72,46.04 C145.12,49.52 139.84,50.84 134.44,50.84 C130.96,49.52 125.2,48.56 121.84,48.56 C108.04,48.56 100.36,56.96 100.36,68.12 C100.36,76.4 104.56,81.92 113.44,85.64 C106.48,88.64 103.12,92.24 103.12,96.32 C103.12,99.08 104.44,101.24 106.96,102.68 C109.96,104.36 114.76,104.72 120.52,105.08 C138.88,106.16 141.88,108.08 141.88,115.4 C141.88,121.88 135.76,128.36 122.2,128.36 C110.08,128.36 104.32,123.2 104.32,116.12 C104.32,112.16 106.48,109.28 108.04,107.6 L107.44,107 C102.04,108.44 96.88,112.28 96.88,118.28 C96.88,125.48 104.56,132.92 121.84,132.92 C137.2,132.92 149.2,124.64 149.2,113.36 C149.2,100.64 139.96,99.2 127.12,98.72 C120.04,98.48 114.88,98 113.2,97.28 C112,96.68 110.92,95.72 110.92,93.68 C110.92,91.4 114.52,87.92 118.24,86.6 C120.16,86.6 122.44,86.48 124.36,86.24 C138.04,84.44 142.48,75.68 142.48,68 C142.48,62.6 140.68,57.92 136.48,55.28 C138.04,55.64 140.44,55.88 142.72,55.88 C145.6,55.88 148.96,54.68 148.96,50.72 C148.96,49.28 148.24,47.6 146.68,46.04 L145.72,46.04 Z M134.8,68 C134.8,78.2 128.8,82.4 121.48,82.4 C114.28,82.4 108.16,77.96 108.16,67.64 C108.16,56.96 114.28,52.88 121.48,52.88 C129.28,52.88 134.8,57.32 134.8,68 L134.8,68 Z M181.72,107.12 L181.72,105.2 C174.28,104.96 172.24,101.84 172.24,95.12 L172.24,61.76 C176.8,57.2 182.92,54.68 190.36,54.68 C194.56,54.68 198.64,56.36 200.08,60.08 C200.8,62.24 201.28,65.84 201.28,70.16 L201.28,89.48 C201.28,95.6 201.4,99.56 202.12,101.84 C203.08,104.72 205,107.96 210.88,107.96 C213.52,107.96 216.52,106.64 218.68,104.84 L218.68,103.76 C213.28,103.76 210.28,101.6 209.32,98.72 C208.72,96.68 208.48,93.32 208.48,89.6 L208.48,67.28 C208.48,62 207.76,58.04 206.68,55.64 C204.28,50.72 199.6,48.44 193.36,48.44 C182.8,48.44 175.72,53.84 172.24,58.52 L172.24,29 C172.24,19.16 171.52,17.12 167.32,17.12 C163.72,17.12 159.16,19.76 156.28,22.16 L156.28,23.24 C163.96,23.48 165.04,26.12 165.04,34.52 L165.04,94.64 C165.04,102.2 162.88,104.84 156.64,105.2 L156.64,107.12 C161.08,106.76 163.96,106.76 168.64,106.76 C173.2,106.76 177.16,106.88 181.72,107.12 L181.72,107.12 Z M258.76,101.48 L257.92,100.64 C255.4,101.6 252.28,102.44 249.64,102.44 C245.44,102.44 242.68,101.24 241.72,96.68 C241.36,94.88 241.12,92.48 241.12,89.6 L241.12,54.68 L256.12,54.68 L256.12,49.88 L241.12,49.88 L241.12,36.08 L238.36,36.08 C234.88,49.28 232,50.48 224.8,52.16 L224.8,54.68 L233.92,54.68 L233.92,91.76 C233.92,94.4 234.04,96.8 234.28,98.72 C235.6,105.68 239.44,108.2 246.16,108.2 C250.84,108.2 255.52,105.56 258.76,101.48 L258.76,101.48 Z" id="Light" sketch:type="MSShapeGroup"></path>
            <path d="M16.0982233,191.073 L16.0982233,189.905 C11.2072233,189.832 10.2582233,187.423 10.2582233,183.335 C10.2582233,181.437 10.7692233,172.677 12.4482233,150.996 C17.3392233,162.384 23.7632233,179.758 26.9022233,190.051 L29.6032233,190.051 C31.8662233,182.897 33.4722233,179.028 44.7872233,148.222 C45.1522233,152.456 46.6122233,179.977 46.6122233,183.335 C46.6122233,187.569 45.6632233,189.832 40.7722233,189.905 L40.7722233,191.073 C43.5462233,191 46.3932233,190.927 49.0212233,190.927 C51.7222233,190.927 55.1532233,191 57.4892233,191.073 L57.4892233,189.905 C52.5982233,189.832 51.9412233,187.423 51.6492233,183.335 C49.7512233,152.383 49.6782233,149.828 49.6782233,148.952 C49.6782233,145.083 50.5542233,143.477 54.8612233,143.331 L54.8612233,142.163 C52.1602233,142.309 50.6272233,142.382 49.3132233,142.382 C47.3422233,142.382 44.5682233,142.309 43.4002233,142.236 C31.5012233,174.502 30.4792233,177.641 29.1652233,181.364 C24.0552233,166.18 17.7772233,149.901 14.8572233,144.791 C13.9082233,143.112 12.8132233,141.725 9.96622328,141.725 C7.99522328,141.725 5.65922328,142.528 4.05322328,143.623 L4.19922328,144.134 C6.68122328,144.28 8.36022328,144.937 9.45522328,147.346 C9.45522328,148.368 9.16322328,153.259 6.46222328,183.335 C6.09722328,187.204 5.14822328,189.832 0.257223282,189.905 L0.257223282,191.073 C2.95822328,191 4.85622328,190.927 7.55722328,190.927 C10.2582233,190.927 13.8352233,191 16.0982233,191.073 L16.0982233,191.073 Z M126.441779,166.91 C126.441779,153.332 121.550779,141.287 106.220779,141.287 C93.7377786,141.287 86.2917786,151.069 86.2917786,166.399 C86.2917786,181.072 92.2047786,191.949 106.585779,191.949 C119.798779,191.949 126.441779,181.875 126.441779,166.91 L126.441779,166.91 Z M121.185779,167.567 C121.185779,182.532 114.980779,189.175 106.585779,189.175 C96.0007786,189.175 91.5477786,179.393 91.5477786,165.669 C91.5477786,151.872 96.5847786,144.061 106.220779,144.061 C116.440779,144.061 121.185779,152.967 121.185779,167.567 L121.185779,167.567 Z M171.961334,191.073 L171.961334,189.905 C167.070334,189.832 166.048334,187.423 166.048334,183.335 C166.048334,166.837 166.048334,154.938 165.902334,149.682 C173.129334,159.172 185.904334,178.517 193.861334,191.219 L196.489334,191.219 L196.489334,149.828 C196.489334,145.813 197.438334,143.404 202.329334,143.258 L202.329334,142.163 C199.993334,142.236 197.584334,142.309 194.883334,142.309 C192.182334,142.309 189.700334,142.309 187.072334,142.163 L187.072334,143.258 C191.963334,143.404 192.912334,145.813 192.912334,149.828 C192.912334,169.173 193.204334,179.393 193.350334,181.51 C179.553334,159.756 172.618334,149.536 168.092334,144.572 C166.559334,142.893 165.099334,141.579 162.471334,141.579 C160.573334,141.579 158.091334,142.528 156.704334,143.696 L156.850334,144.134 C159.040334,144.28 161.157334,145.01 162.617334,146.908 L162.617334,183.335 C162.617334,187.423 161.522334,189.832 156.631334,189.905 L156.631334,191.073 C159.405334,191.073 161.814334,190.927 164.515334,190.927 C167.216334,190.927 169.625334,191 171.961334,191.073 L171.961334,191.073 Z M256.754889,191.073 L256.754889,189.905 C251.863889,189.832 250.914889,187.423 250.914889,183.335 L250.914889,145.01 L254.345889,145.01 C263.105889,145.01 264.857889,145.74 266.536889,152.821 L267.996889,152.821 C267.631889,149.39 267.339889,145.74 267.120889,142.236 C255.951889,142.382 252.666889,142.382 248.578889,142.382 C244.417889,142.382 241.059889,142.382 229.890889,142.236 C229.671889,145.74 229.379889,149.39 229.087889,152.821 L230.547889,152.821 C232.153889,145.74 233.102889,145.01 242.154889,145.01 L246.169889,145.01 L246.169889,183.335 C246.169889,187.423 245.293889,189.832 240.402889,189.905 L240.402889,191.073 C241.935889,191 245.658889,190.927 248.359889,190.927 C251.133889,190.927 254.418889,191 256.754889,191.073 L256.754889,191.073 Z M327.824445,191 C327.824445,187.131 327.897445,183.189 327.970445,179.32 L326.510445,179.32 C325.707445,185.963 323.809445,188.08 317.896445,188.08 C314.611445,188.08 310.085445,188.007 305.413445,187.496 L305.413445,166.91 L309.282445,166.91 C317.750445,166.91 318.991445,168.443 319.283445,172.239 L320.743445,172.239 C320.597445,170.049 320.597445,167.859 320.597445,165.596 C320.597445,163.406 320.597445,161.143 320.743445,158.88 L319.283445,158.88 C318.991445,162.895 317.531445,164.136 309.209445,164.136 L305.413445,164.136 L305.413445,145.302 L312.202445,145.302 C321.473445,145.302 323.590445,145.74 325.269445,152.821 L326.510445,152.821 C326.218445,149.39 325.926445,145.74 325.707445,142.236 C314.538445,142.455 310.085445,142.455 305.924445,142.455 C302.055445,142.455 299.354445,142.382 294.828445,142.163 L294.828445,143.331 C299.646445,143.477 300.668445,144.426 300.668445,148.441 L300.668445,183.335 C300.668445,187.423 299.646445,189.832 294.828445,189.905 L294.828445,191.073 C299.354445,190.927 301.982445,190.927 304.610445,190.927 C308.552445,190.927 320.086445,190.927 327.824445,191 L327.824445,191 Z M359.839,178.371 C356.554,179.174 355.897,180.853 355.897,182.386 C355.897,187.35 362.175,191.949 371.446,191.949 C380.425,191.949 388.163,187.131 388.163,178.298 C388.163,173.115 385.535,169.538 376.775,165.304 L371.008,162.53 C365.387,159.829 362.613,157.201 362.613,152.748 C362.613,147.127 367.942,144.061 373.417,144.061 C378.235,144.061 382.834,146.032 382.907,152.456 L383.418,152.748 C386.192,151.726 386.995,150.339 386.995,149.171 C386.995,145.813 383.345,141.287 373.636,141.287 C366.044,141.287 358.233,145.156 358.233,153.624 C358.233,159.464 361.445,163.552 367.942,166.618 L373.928,169.538 C379.33,172.093 383.637,174.648 383.637,179.393 C383.637,186.255 378.016,188.956 372.103,188.956 C366.701,188.956 360.277,186.474 360.277,178.736 L359.839,178.371 Z M419.520555,178.371 C416.235555,179.174 415.578555,180.853 415.578555,182.386 C415.578555,187.35 421.856555,191.949 431.127555,191.949 C440.106555,191.949 447.844555,187.131 447.844555,178.298 C447.844555,173.115 445.216555,169.538 436.456555,165.304 L430.689555,162.53 C425.068555,159.829 422.294555,157.201 422.294555,152.748 C422.294555,147.127 427.623555,144.061 433.098555,144.061 C437.916555,144.061 442.515555,146.032 442.588555,152.456 L443.099555,152.748 C445.873555,151.726 446.676555,150.339 446.676555,149.171 C446.676555,145.813 443.026555,141.287 433.317555,141.287 C425.725555,141.287 417.914555,145.156 417.914555,153.624 C417.914555,159.464 421.126555,163.552 427.623555,166.618 L433.609555,169.538 C439.011555,172.093 443.318555,174.648 443.318555,179.393 C443.318555,186.255 437.697555,188.956 431.784555,188.956 C426.382555,188.956 419.958555,186.474 419.958555,178.736 L419.520555,178.371 Z M517.089111,166.91 C517.089111,153.332 512.198111,141.287 496.868111,141.287 C484.385111,141.287 476.939111,151.069 476.939111,166.399 C476.939111,181.072 482.852111,191.949 497.233111,191.949 C510.446111,191.949 517.089111,181.875 517.089111,166.91 L517.089111,166.91 Z M511.833111,167.567 C511.833111,182.532 505.628111,189.175 497.233111,189.175 C486.648111,189.175 482.195111,179.393 482.195111,165.669 C482.195111,151.872 487.232111,144.061 496.868111,144.061 C507.088111,144.061 511.833111,152.967 511.833111,167.567 L511.833111,167.567 Z M564.068666,191.073 L564.068666,189.905 C558.301666,189.832 557.498666,187.423 557.498666,182.824 L557.498666,168.589 C559.177666,168.662 560.345666,168.662 561.659666,168.662 C564.214666,168.662 566.112666,169.1 567.718666,170.487 C569.689666,172.239 572.974666,179.539 575.894666,184.649 C578.960666,189.832 580.858666,191.511 584.143666,191.511 C586.041666,191.511 587.793666,190.708 589.472666,188.81 L589.253666,188.445 C587.136666,188.445 585.384666,187.934 584.289666,187.058 C583.121666,186.109 581.661666,184.357 579.763666,181.218 C577.865666,178.079 576.186666,175.013 574.434666,171.947 C573.120666,169.611 571.514666,167.713 569.470666,167.494 C578.522666,165.085 581.369666,159.829 581.369666,154.354 C581.369666,146.543 576.259666,142.236 564.579666,142.236 C561.878666,142.236 557.717666,142.382 555.016666,142.382 C552.315666,142.382 549.468666,142.382 546.913666,142.236 L546.913666,143.258 C551.731666,143.404 552.753666,144.864 552.753666,148.879 L552.753666,183.335 C552.753666,187.423 551.731666,189.832 546.913666,189.905 L546.913666,191.073 C549.614666,191 552.388666,190.927 555.089666,190.927 C557.790666,190.927 561.805666,191 564.068666,191.073 L564.068666,191.073 Z M557.498666,165.669 L557.498666,145.083 L563.630666,145.083 C571.514666,145.083 576.259666,147.93 576.259666,155.011 C576.259666,160.559 573.339666,165.815 561.805666,165.815 C560.418666,165.815 558.958666,165.815 557.498666,165.669 L557.498666,165.669 Z M631.050221,191.073 L631.050221,189.905 C626.159221,189.832 625.210221,187.423 625.210221,183.335 L625.210221,148.441 C625.210221,144.426 626.159221,143.477 631.050221,143.331 L631.050221,142.163 C628.349221,142.309 625.575221,142.309 622.874221,142.309 C620.173221,142.309 617.326221,142.309 614.625221,142.163 L614.625221,143.331 C619.443221,143.477 620.465221,144.426 620.465221,148.441 L620.465221,183.335 C620.465221,187.423 619.443221,189.832 614.625221,189.905 L614.625221,191.073 C617.326221,191 620.173221,190.927 622.874221,190.927 C625.575221,190.927 628.714221,191 631.050221,191.073 L631.050221,191.073 Z" id="MONTESSORI" sketch:type="MSShapeGroup"></path>
        </g>
    </g>
</svg>